<?xml version="1.0" encoding="UTF-8"?><svg id="Layer_1" xmlns="http://www.w3.org/2000/svg" viewBox="0 0 72 72"><defs><style>.cls-1{fill:#231f20;}</style></defs><path class="cls-1" d="M67.17,46.59c-.6-3.69-4.48-6.7-8.88-8.97-6.27-2.71-14.71-5.29-15.09-5.41,0,0-.05-.02-.09-.03,.19-.11,.34-.2,.34-.2L63.52,15.39s1.36-1.1,1.87-1.85c.07-.11,.15-.22,.22-.33,.15-.25,.3-.6,.27-1.01-.03-.33-.38-1.67-2.02-1.37-.44,.09-.97,.3-1.61,.68-3.34,1.97-5.95,4.54-9.88,.11-3.84-5.08-9.02-12.62-17.37-10.12C26.79,3.95,17.3,9.91,15.85,14.26c-1.88,5.66,5.77,11.7,18.78,16.01,1.84,.59,3.01,1.02,4.58,1.46,.16,.02,.13,.15,.03,.21l-4.74,3.87-.1,.08c-.06,.04-.17,.07-.35,.03-3.83-1.23-7.84-2.8-12.16-4.25-3.56-1.2-6.79-2.81-9.13-4.54-4.19-3.11-5.53-6.62-.76-8.92,.19-.63,1.09-3.26,1.09-3.26,0,0-9.81,1.82-8.23,10.9,.64,3.69,4.57,6.64,9,8.85,5.88,2.45,13.63,4.76,14.97,5.15-.09,.05-.16,.09-.16,.09L8.37,56.27s-1.37,1.08-1.89,1.83c-.07,.11-.15,.21-.23,.33-.16,.25-.31,.6-.28,1.01,.02,.33,.35,1.67,2,1.4,.44-.08,.97-.28,1.62-.65,3.37-1.93,6.01-4.46,9.88,.02,3.77,5.13,8.85,12.74,17.23,10.35,8.24-2.35,17.81-8.18,19.32-12.51,1.95-5.63-5.61-11.78-18.56-16.26-1.83-.62-2.99-1.06-4.56-1.52-.16-.03-.12-.15-.03-.21l4.89-3.88c.06-.04,.17-.07,.35-.02,3.82,1.28,7.8,2.9,12.1,4.41,3.54,1.25,6.75,2.9,9.07,4.66,4.15,3.16,5.44,6.69,.65,8.93-.2,.63-1.13,3.24-1.13,3.24,0,0,9.84-1.69,8.37-10.79ZM34,21.75c-4.36-1.45-8.6-4.28-10.42-6.75-1.51-2.06-1.07-3.79-.05-5.11,.97-1.28,3.9-2.9,7.04-3.03,1.65-.07,2.66,.28,3.55,.55,1.56,.59,2.85,1.39,3.61,1.92,4.62,3.22,11.29,8.33,16.75,8.35,1.37-.02,1.52,.36,.42,1.23l-7.6,6.36c-.48,.36-1.19,.47-1.19,.47,0,0-11.02-3.62-12.13-3.99Zm3.98,28.56c4.34,1.5,8.54,4.4,10.32,6.89,1.49,2.08,1.02,3.8-.02,5.11-.98,1.27-3.94,2.84-7.08,2.94-1.65,.05-2.66-.32-3.55-.6-1.55-.61-2.83-1.43-3.58-1.97-4.58-3.29-11.18-8.48-16.64-8.57-1.37,0-1.51-.38-.41-1.23l7.69-6.26c.49-.35,.74-.57,1.19-.46,6.05,2.03,10.97,3.76,12.07,4.15Z"/></svg>